<?xml version="1.0" standalone="no"?>
<!DOCTYPE svg PUBLIC "-//W3C//DTD SVG 20010904//EN"
 "http://www.w3.org/TR/2001/REC-SVG-20010904/DTD/svg10.dtd">
<svg version="1.0" xmlns="http://www.w3.org/2000/svg"
 width="700.000000pt" height="700.000000pt" viewBox="0 0 700.000000 700.000000"
 preserveAspectRatio="xMidYMid meet">
<metadata>
Created by potrace 1.11, written by Peter Selinger 2001-2013
</metadata>
<g transform="translate(0.000000,700.000000) scale(0.100000,-0.100000)"
fill="#000000" stroke="none">
<path d="M661 6916 c-46 -10 -93 -49 -163 -136 -20 -25 -132 -162 -248 -305
-214 -262 -249 -315 -250 -370 -1 -172 204 -265 325 -147 24 23 40 42 123 145
34 43 63 77 63 75 1 -2 3 -1225 4 -2718 l1 -2715 21 -40 c24 -44 46 -66 94
-91 31 -15 231 -17 2797 -17 l2763 0 -28 -25 c-64 -55 -120 -102 -160 -133
-50 -40 -93 -119 -92 -168 3 -137 142 -231 266 -179 25 11 299 228 357 283 6
6 65 55 131 109 196 161 216 179 235 217 34 66 30 143 -11 201 -24 34 -676
541 -732 569 -118 61 -269 -38 -269 -176 0 -68 29 -112 118 -183 43 -35 96
-78 118 -95 l39 -32 -2629 0 -2629 0 -1 2602 c-1 1884 2 2600 10 2596 6 -4 16
-14 23 -23 60 -83 169 -201 199 -215 77 -36 158 -21 219 40 65 64 76 141 33
222 -17 32 -375 474 -408 503 -3 3 -36 42 -72 86 -74 90 -96 107 -148 120 -50
11 -51 11 -99 0z"/>
<path d="M6225 6527 c-446 -48 -733 -497 -590 -922 33 -96 83 -179 158 -257
l45 -47 -53 -93 c-28 -51 -64 -115 -80 -143 -15 -27 -71 -126 -123 -220 -53
-93 -117 -208 -142 -255 -26 -47 -99 -177 -162 -290 -64 -113 -124 -221 -135
-240 -235 -423 -328 -587 -337 -597 -8 -9 -27 -7 -81 8 -133 38 -317 27 -437
-25 l-36 -16 -54 48 c-29 26 -55 49 -58 52 -3 3 -41 37 -85 75 -44 39 -82 72
-85 75 -3 3 -70 64 -150 135 -80 70 -166 148 -192 172 l-47 43 15 42 c49 137
52 309 8 446 -58 180 -192 337 -359 417 -97 47 -174 66 -285 70 -202 8 -386
-65 -525 -210 -66 -69 -115 -144 -150 -232 -69 -170 -65 -368 11 -540 25 -58
74 -134 112 -176 l26 -27 -22 -43 c-23 -46 -109 -208 -287 -542 -24 -44 -66
-123 -93 -175 l-50 -94 -44 4 c-276 28 -519 -82 -667 -300 -20 -30 -45 -73
-55 -95 -11 -22 -22 -47 -26 -55 -7 -15 -21 -71 -22 -87 0 -5 -5 -19 -10 -32
-13 -35 -12 -185 1 -259 32 -170 150 -350 296 -449 115 -78 285 -126 420 -117
115 7 150 14 239 51 273 113 442 377 432 673 -6 162 -59 299 -161 424 -65 77
-66 54 11 196 22 41 71 134 109 205 37 72 82 157 100 190 18 33 58 110 90 170
74 141 79 147 113 134 31 -12 191 -15 242 -5 78 16 168 48 225 80 l59 34 75
-66 c42 -37 81 -71 87 -77 16 -15 147 -131 264 -235 58 -51 125 -111 148 -133
l44 -39 -40 -87 c-149 -319 -41 -693 253 -884 359 -231 834 -93 1015 296 98
209 83 458 -39 657 l-30 49 70 126 c38 69 75 135 81 148 7 12 22 38 34 57 11
19 102 181 202 360 99 179 189 341 200 360 12 19 30 53 42 75 12 22 95 171
185 330 89 160 174 313 189 340 15 28 38 68 50 89 l23 39 94 -1 c161 -1 291
38 415 124 116 82 197 183 251 314 38 90 43 119 49 234 12 280 -139 534 -389
654 -130 62 -249 84 -382 69z"/>
</g>
</svg>
